<?xml version="1.0" standalone="no"?>
<!DOCTYPE svg PUBLIC "-//W3C//DTD SVG 20010904//EN"
 "http://www.w3.org/TR/2001/REC-SVG-20010904/DTD/svg10.dtd">
<svg version="1.0" xmlns="http://www.w3.org/2000/svg"
 width="512.000000pt" height="436.000000pt" viewBox="0 0 512.000000 436.000000"
 preserveAspectRatio="xMidYMid meet">
<metadata>
Created by potrace 1.15, written by Peter Selinger 2001-2017
</metadata>
<g transform="translate(0.000000,436.000000) scale(0.100000,-0.100000)"
fill="#000000" stroke="none">
<path d="M2330 4354 c-14 -2 -65 -9 -115 -15 -558 -68 -1093 -333 -1491 -741
-389 -397 -618 -870 -706 -1453 -18 -121 -18 -569 0 -690 68 -448 231 -853
476 -1184 105 -141 201 -246 236 -261 46 -19 116 -8 150 25 17 16 44 66 65
120 89 225 215 415 390 590 228 228 467 365 778 445 168 43 255 54 447 54 192
0 279 -11 447 -54 311 -80 550 -217 778 -445 175 -175 301 -365 390 -590 44
-111 75 -145 139 -152 66 -8 99 10 173 96 332 380 536 830 615 1356 18 121 18
569 0 690 -62 414 -200 780 -412 1095 -89 132 -173 234 -294 358 -391 400
-868 642 -1453 738 -93 15 -550 29 -613 18z m585 -283 c477 -80 884 -286 1233
-626 214 -207 354 -397 478 -650 337 -687 306 -1487 -84 -2142 -74 -123 -172
-265 -172 -247 0 5 -27 56 -60 112 -176 297 -428 548 -733 730 -106 63 -269
140 -345 163 -23 6 -42 15 -42 19 0 4 26 24 57 46 140 95 328 322 399 479 127
286 144 589 47 860 -76 210 -213 406 -383 547 -214 176 -487 278 -750 278
-437 0 -865 -271 -1067 -675 -91 -181 -126 -326 -126 -520 -1 -177 30 -317
107 -490 71 -157 259 -384 399 -479 31 -22 57 -42 57 -46 0 -4 -19 -13 -42
-19 -76 -23 -239 -100 -345 -163 -305 -182 -557 -433 -733 -730 -33 -56 -60
-107 -60 -112 0 -18 -98 124 -172 247 -485 814 -407 1838 197 2582 97 119 297
313 415 401 348 261 756 418 1190 458 108 10 418 -4 535 -23z m-245 -722 c131
-16 196 -35 318 -95 219 -108 376 -297 448 -541 49 -166 45 -410 -10 -571
-105 -306 -336 -515 -652 -588 -109 -26 -319 -26 -428 0 -316 73 -547 282
-652 588 -36 106 -47 204 -41 351 11 261 97 452 286 629 65 61 103 87 193 132
185 91 346 119 538 95z"/>
</g>
</svg>
